<?xml version="1.0" encoding="UTF-8"?>
<svg xmlns="http://www.w3.org/2000/svg" version="1.1" width="800" height="800" viewBox="0 0 800 800"><rect x="0" y="0" width="800" height="800" fill="#ffffff"/><g transform="scale(27.586)"><g transform="translate(0,0)"><path fill-rule="evenodd" d="M8 0L8 2L9 2L9 1L10 1L10 3L12 3L12 4L10 4L10 5L9 5L9 3L8 3L8 7L9 7L9 8L10 8L10 7L11 7L11 8L12 8L12 9L14 9L14 10L12 10L12 11L11 11L11 9L10 9L10 10L9 10L9 9L7 9L7 8L6 8L6 9L7 9L7 10L6 10L6 11L5 11L5 12L4 12L4 11L1 11L1 12L0 12L0 14L1 14L1 12L2 12L2 16L3 16L3 17L1 17L1 16L0 16L0 17L1 17L1 18L0 18L0 19L1 19L1 18L2 18L2 19L3 19L3 20L2 20L2 21L3 21L3 20L5 20L5 21L7 21L7 20L6 20L6 19L7 19L7 18L6 18L6 17L7 17L7 16L6 16L6 15L7 15L7 14L6 14L6 15L5 15L5 16L4 16L4 14L3 14L3 12L4 12L4 13L7 13L7 12L6 12L6 11L9 11L9 13L10 13L10 15L11 15L11 16L8 16L8 18L9 18L9 17L10 17L10 18L14 18L14 20L12 20L12 21L9 21L9 20L8 20L8 22L10 22L10 23L9 23L9 25L8 25L8 26L10 26L10 27L9 27L9 28L11 28L11 29L12 29L12 28L13 28L13 27L12 27L12 24L14 24L14 25L17 25L17 26L15 26L15 29L16 29L16 28L17 28L17 27L18 27L18 26L19 26L19 27L20 27L20 26L21 26L21 25L22 25L22 26L24 26L24 25L25 25L25 27L23 27L23 28L20 28L20 29L28 29L28 28L29 28L29 23L28 23L28 21L27 21L27 20L24 20L24 19L23 19L23 18L20 18L20 17L21 17L21 16L23 16L23 15L24 15L24 14L26 14L26 13L27 13L27 14L28 14L28 15L25 15L25 16L24 16L24 17L25 17L25 16L26 16L26 18L25 18L25 19L26 19L26 18L27 18L27 19L29 19L29 18L28 18L28 17L27 17L27 16L29 16L29 12L28 12L28 13L27 13L27 11L28 11L28 9L29 9L29 8L27 8L27 11L26 11L26 10L25 10L25 9L26 9L26 8L23 8L23 9L24 9L24 10L25 10L25 11L26 11L26 12L25 12L25 13L24 13L24 11L21 11L21 10L22 10L22 9L21 9L21 10L20 10L20 9L19 9L19 8L21 8L21 2L20 2L20 1L19 1L19 0L18 0L18 2L17 2L17 1L16 1L16 0L15 0L15 1L16 1L16 2L15 2L15 4L13 4L13 3L12 3L12 2L13 2L13 0L12 0L12 2L11 2L11 0ZM16 2L16 3L17 3L17 2ZM18 3L18 4L17 4L17 5L15 5L15 7L16 7L16 8L15 8L15 9L16 9L16 10L14 10L14 11L12 11L12 12L10 12L10 13L11 13L11 15L12 15L12 16L11 16L11 17L14 17L14 18L16 18L16 16L18 16L18 18L17 18L17 19L20 19L20 18L19 18L19 16L20 16L20 15L21 15L21 14L16 14L16 15L15 15L15 14L13 14L13 15L12 15L12 13L13 13L13 12L14 12L14 13L15 13L15 11L18 11L18 10L17 10L17 9L16 9L16 8L17 8L17 7L18 7L18 6L19 6L19 7L20 7L20 5L19 5L19 4L20 4L20 3ZM12 4L12 5L10 5L10 6L9 6L9 7L10 7L10 6L11 6L11 7L12 7L12 8L13 8L13 7L14 7L14 6L13 6L13 7L12 7L12 5L13 5L13 4ZM16 6L16 7L17 7L17 6ZM3 8L3 9L2 9L2 10L3 10L3 9L4 9L4 10L5 10L5 9L4 9L4 8ZM0 9L0 10L1 10L1 9ZM17 12L17 13L22 13L22 12ZM23 13L23 14L24 14L24 13ZM18 15L18 16L19 16L19 15ZM3 17L3 18L4 18L4 17ZM5 18L5 19L6 19L6 18ZM10 19L10 20L11 20L11 19ZM22 19L22 20L23 20L23 19ZM0 20L0 21L1 21L1 20ZM14 20L14 22L13 22L13 23L15 23L15 24L17 24L17 25L18 25L18 24L17 24L17 22L18 22L18 23L19 23L19 25L20 25L20 23L19 23L19 22L20 22L20 20L19 20L19 22L18 22L18 20ZM21 21L21 24L24 24L24 21ZM25 21L25 22L26 22L26 23L25 23L25 25L26 25L26 26L27 26L27 27L25 27L25 28L28 28L28 25L26 25L26 24L28 24L28 23L27 23L27 21ZM15 22L15 23L16 23L16 22ZM22 22L22 23L23 23L23 22ZM11 23L11 24L10 24L10 25L11 25L11 24L12 24L12 23ZM0 0L0 7L7 7L7 0ZM1 1L1 6L6 6L6 1ZM2 2L2 5L5 5L5 2ZM22 0L22 7L29 7L29 0ZM23 1L23 6L28 6L28 1ZM24 2L24 5L27 5L27 2ZM0 22L0 29L7 29L7 22ZM1 23L1 28L6 28L6 23ZM2 24L2 27L5 27L5 24Z" fill="#000000"/></g></g></svg>
