<?xml version="1.0" encoding="UTF-8"?>
<svg xmlns="http://www.w3.org/2000/svg" version="1.1" width="800" height="800" viewBox="0 0 800 800"><rect x="0" y="0" width="800" height="800" fill="#ffffff"/><g transform="scale(32)"><g transform="translate(0,0)"><path fill-rule="evenodd" d="M9 0L9 1L11 1L11 2L9 2L9 3L8 3L8 5L9 5L9 6L8 6L8 7L9 7L9 9L10 9L10 10L8 10L8 8L5 8L5 9L4 9L4 10L3 10L3 9L2 9L2 8L0 8L0 11L1 11L1 12L0 12L0 17L1 17L1 13L3 13L3 11L4 11L4 13L5 13L5 14L6 14L6 15L3 15L3 14L2 14L2 17L3 17L3 16L4 16L4 17L7 17L7 16L6 16L6 15L8 15L8 20L9 20L9 21L10 21L10 25L14 25L14 23L15 23L15 24L16 24L16 25L18 25L18 24L19 24L19 23L20 23L20 25L21 25L21 24L22 24L22 25L23 25L23 24L24 24L24 25L25 25L25 24L24 24L24 23L25 23L25 21L24 21L24 20L25 20L25 11L24 11L24 14L20 14L20 16L18 16L18 15L19 15L19 13L23 13L23 12L22 12L22 11L23 11L23 10L25 10L25 9L22 9L22 8L20 8L20 11L19 11L19 9L17 9L17 3L16 3L16 4L14 4L14 2L15 2L15 1L17 1L17 0L13 0L13 1L12 1L12 0ZM12 2L12 4L11 4L11 7L10 7L10 6L9 6L9 7L10 7L10 8L11 8L11 10L10 10L10 11L9 11L9 12L7 12L7 11L8 11L8 10L7 10L7 9L5 9L5 10L4 10L4 11L6 11L6 12L7 12L7 13L6 13L6 14L7 14L7 13L9 13L9 14L8 14L8 15L11 15L11 16L10 16L10 17L9 17L9 20L11 20L11 19L12 19L12 21L11 21L11 24L12 24L12 23L13 23L13 22L12 22L12 21L15 21L15 23L16 23L16 24L17 24L17 23L18 23L18 22L17 22L17 21L16 21L16 20L15 20L15 19L12 19L12 18L14 18L14 17L15 17L15 16L13 16L13 17L12 17L12 15L13 15L13 14L16 14L16 15L17 15L17 13L18 13L18 12L19 12L19 11L18 11L18 12L17 12L17 13L15 13L15 12L14 12L14 11L12 11L12 12L11 12L11 14L10 14L10 13L9 13L9 12L10 12L10 11L11 11L11 10L14 10L14 9L15 9L15 10L16 10L16 11L17 11L17 9L15 9L15 8L14 8L14 6L13 6L13 5L14 5L14 4L13 4L13 2ZM9 3L9 5L10 5L10 3ZM12 4L12 5L13 5L13 4ZM15 5L15 7L16 7L16 5ZM12 6L12 9L13 9L13 6ZM1 9L1 10L2 10L2 11L3 11L3 10L2 10L2 9ZM6 10L6 11L7 11L7 10ZM20 11L20 12L21 12L21 11ZM13 12L13 13L12 13L12 14L13 14L13 13L14 13L14 12ZM21 15L21 16L22 16L22 18L21 18L21 21L22 21L22 20L23 20L23 19L24 19L24 16L22 16L22 15ZM17 17L17 20L20 20L20 17ZM18 18L18 19L19 19L19 18ZM19 21L19 22L20 22L20 23L21 23L21 22L20 22L20 21ZM23 21L23 23L22 23L22 24L23 24L23 23L24 23L24 21ZM8 23L8 25L9 25L9 23ZM0 0L0 7L7 7L7 0ZM1 1L1 6L6 6L6 1ZM2 2L2 5L5 5L5 2ZM18 0L18 7L25 7L25 0ZM19 1L19 6L24 6L24 1ZM20 2L20 5L23 5L23 2ZM0 18L0 25L7 25L7 18ZM1 19L1 24L6 24L6 19ZM2 20L2 23L5 23L5 20Z" fill="#000000"/></g></g></svg>
