<?xml version="1.0" encoding="UTF-8"?>
<svg xmlns="http://www.w3.org/2000/svg" version="1.1" width="200" height="200" viewBox="0 0 200 200"><rect x="0" y="0" width="200" height="200" fill="#ffffff"/><g transform="scale(1.418)"><g transform="translate(58,58)"><path fill-rule="evenodd" d="M8 0.25L8 0.75A0.25 0.25 0 0 0 8.25 1L9.75 1A0.25 0.25 0 0 0 10 0.75L10 0.25A0.25 0.25 0 0 0 9.75 0L8.25 0A0.25 0.25 0 0 0 8 0.25ZM14 0.25L14 0.75A0.25 0.25 0 0 1 13.75 1L13.25 1A0.25 0.25 0 0 0 13 1.25L13 1.75A0.25 0.25 0 0 1 12.75 2L11.25 2A0.25 0.25 0 0 0 11 2.25L11 3.75A0.25 0.25 0 0 1 10.75 4L10.25 4A0.25 0.25 0 0 1 10 3.75L10 3.25A0.25 0.25 0 0 0 9.75 3L9.25 3A0.25 0.25 0 0 1 9 2.75L9 2.25A0.25 0.25 0 0 0 8.75 2L8.25 2A0.25 0.25 0 0 0 8 2.25L8 4.75A0.25 0.25 0 0 0 8.25 5L8.75 5A0.25 0.25 0 0 1 9 5.25L9 5.75A0.25 0.25 0 0 1 8.75 6L8.25 6A0.25 0.25 0 0 0 8 6.25L8 6.75A0.25 0.25 0 0 0 8.25 7L8.75 7A0.25 0.25 0 0 1 9 7.25L9 7.75A0.25 0.25 0 0 1 8.75 8L8.25 8A0.25 0.25 0 0 0 8 8.25L8 8.75A0.25 0.25 0 0 1 7.75 9L7.25 9A0.25 0.25 0 0 1 7 8.75L7 8.25A0.25 0.25 0 0 0 6.75 8L6.25 8A0.25 0.25 0 0 0 6 8.25L6 8.75A0.25 0.25 0 0 1 5.75 9L4.25 9A0.25 0.25 0 0 1 4 8.75L4 8.25A0.25 0.25 0 0 0 3.75 8L0.25 8A0.25 0.25 0 0 0 0 8.25L0 8.75A0.25 0.25 0 0 0 0.25 9L0.75 9A0.25 0.25 0 0 1 1 9.25L1 9.75A0.25 0.25 0 0 1 0.75 10L0.25 10A0.25 0.25 0 0 0 0 10.25L0 12.75A0.25 0.25 0 0 0 0.25 13L0.75 13A0.25 0.25 0 0 1 1 13.25L1 14.75A0.25 0.25 0 0 1 0.75 15L0.25 15A0.25 0.25 0 0 0 0 15.25L0 15.75A0.25 0.25 0 0 0 0.25 16L0.75 16A0.25 0.25 0 0 0 1 15.75L1 15.25A0.25 0.25 0 0 1 1.25 15L1.75 15A0.25 0.25 0 0 0 2 14.75L2 13.25A0.25 0.25 0 0 1 2.25 13L4.75 13A0.25 0.25 0 0 1 5 13.25L5 13.75A0.25 0.25 0 0 1 4.75 14L4.25 14A0.25 0.25 0 0 0 4 14.25L4 14.75A0.25 0.25 0 0 0 4.25 15L6.75 15A0.25 0.25 0 0 1 7 15.25L7 15.75A0.25 0.25 0 0 1 6.75 16L6.25 16A0.25 0.25 0 0 0 6 16.25L6 16.75A0.25 0.25 0 0 0 6.25 17L6.75 17A0.25 0.25 0 0 0 7 16.75L7 16.25A0.25 0.25 0 0 1 7.25 16L8.75 16A0.25 0.25 0 0 1 9 16.25L9 16.75A0.25 0.25 0 0 1 8.75 17L8.25 17A0.25 0.25 0 0 0 8 17.25L8 17.75A0.25 0.25 0 0 0 8.25 18L8.75 18A0.25 0.25 0 0 1 9 18.25L9 18.75A0.25 0.25 0 0 0 9.25 19L9.75 19A0.25 0.25 0 0 1 10 19.25L10 19.75A0.25 0.25 0 0 1 9.75 20L9.25 20A0.25 0.25 0 0 0 9 20.25L9 20.75A0.25 0.25 0 0 1 8.75 21L8.25 21A0.25 0.25 0 0 0 8 21.25L8 24.75A0.25 0.25 0 0 0 8.25 25L10.75 25A0.25 0.25 0 0 0 11 24.75L11 23.25A0.25 0.25 0 0 1 11.25 23L13.75 23A0.25 0.25 0 0 0 14 22.75L14 20.25A0.25 0.25 0 0 1 14.25 20L14.75 20A0.25 0.25 0 0 1 15 20.25L15 23.75A0.25 0.25 0 0 1 14.75 24L14.25 24A0.25 0.25 0 0 0 14 24.25L14 24.75A0.25 0.25 0 0 0 14.25 25L16.75 25A0.25 0.25 0 0 0 17 24.75L17 24.25A0.25 0.25 0 0 1 17.25 24L17.75 24A0.25 0.25 0 0 0 18 23.75L18 23.25A0.25 0.25 0 0 1 18.25 23L19.75 23A0.25 0.25 0 0 1 20 23.25L20 23.75A0.25 0.25 0 0 1 19.75 24L19.25 24A0.25 0.25 0 0 0 19 24.25L19 24.75A0.25 0.25 0 0 0 19.25 25L19.75 25A0.25 0.25 0 0 0 20 24.75L20 24.25A0.25 0.25 0 0 1 20.25 24L20.75 24A0.25 0.25 0 0 0 21 23.75L21 22.25A0.25 0.25 0 0 0 20.75 22L19.25 22A0.25 0.25 0 0 1 19 21.75L19 21.25A0.25 0.25 0 0 1 19.25 21L20.75 21A0.25 0.25 0 0 0 21 20.75L21 20.25A0.25 0.25 0 0 1 21.25 20L21.75 20A0.25 0.25 0 0 1 22 20.25L22 20.75A0.25 0.25 0 0 0 22.25 21L22.75 21A0.25 0.25 0 0 1 23 21.25L23 21.75A0.25 0.25 0 0 1 22.75 22L22.25 22A0.25 0.25 0 0 0 22 22.25L22 22.75A0.25 0.25 0 0 0 22.25 23L22.75 23A0.25 0.25 0 0 1 23 23.25L23 24.75A0.25 0.25 0 0 0 23.25 25L24.75 25A0.25 0.25 0 0 0 25 24.75L25 23.25A0.25 0.25 0 0 0 24.75 23L24.25 23A0.25 0.25 0 0 1 24 22.75L24 22.25A0.25 0.25 0 0 1 24.25 22L24.75 22A0.25 0.25 0 0 0 25 21.75L25 18.25A0.25 0.25 0 0 0 24.75 18L23.25 18A0.25 0.25 0 0 1 23 17.75L23 17.25A0.25 0.25 0 0 1 23.25 17L23.75 17A0.25 0.25 0 0 0 24 16.75L24 16.25A0.25 0.25 0 0 1 24.25 16L24.75 16A0.25 0.25 0 0 0 25 15.75L25 15.25A0.25 0.25 0 0 0 24.75 15L24.25 15A0.25 0.25 0 0 1 24 14.75L24 13.25A0.25 0.25 0 0 1 24.25 13L24.75 13A0.25 0.25 0 0 0 25 12.75L25 12.25A0.25 0.25 0 0 0 24.75 12L22.25 12A0.25 0.25 0 0 1 22 11.75L22 11.25A0.25 0.25 0 0 1 22.25 11L22.75 11A0.25 0.25 0 0 0 23 10.75L23 10.25A0.25 0.25 0 0 1 23.25 10L23.75 10A0.25 0.25 0 0 1 24 10.25L24 10.75A0.25 0.25 0 0 0 24.25 11L24.75 11A0.25 0.25 0 0 0 25 10.75L25 8.25A0.25 0.25 0 0 0 24.75 8L24.25 8A0.25 0.25 0 0 0 24 8.25L24 8.75A0.25 0.25 0 0 1 23.75 9L23.25 9A0.25 0.25 0 0 1 23 8.75L23 8.25A0.25 0.25 0 0 0 22.75 8L20.25 8A0.25 0.25 0 0 0 20 8.25L20 8.75A0.25 0.25 0 0 1 19.75 9L19.25 9A0.25 0.25 0 0 0 19 9.25L19 9.75A0.25 0.25 0 0 0 19.25 10L19.75 10A0.25 0.25 0 0 0 20 9.75L20 9.25A0.25 0.25 0 0 1 20.25 9L22.75 9A0.25 0.25 0 0 1 23 9.25L23 9.75A0.25 0.25 0 0 1 22.75 10L22.25 10A0.25 0.25 0 0 0 22 10.25L22 10.75A0.25 0.25 0 0 1 21.75 11L21.25 11A0.25 0.25 0 0 0 21 11.25L21 11.75A0.25 0.25 0 0 0 21.25 12L21.75 12A0.25 0.25 0 0 1 22 12.25L22 12.75A0.25 0.25 0 0 1 21.75 13L20.25 13A0.25 0.25 0 0 0 20 13.25L20 13.75A0.25 0.25 0 0 1 19.75 14L19.25 14A0.25 0.25 0 0 0 19 14.25L19 14.75A0.25 0.25 0 0 0 19.25 15L20.75 15A0.25 0.25 0 0 0 21 14.75L21 14.25A0.25 0.25 0 0 1 21.25 14L21.75 14A0.25 0.25 0 0 0 22 13.75L22 13.25A0.25 0.25 0 0 1 22.25 13L22.75 13A0.25 0.25 0 0 1 23 13.25L23 14.75A0.25 0.25 0 0 1 22.75 15L22.25 15A0.25 0.25 0 0 0 22 15.25L22 15.75A0.25 0.25 0 0 0 22.25 16L22.75 16A0.25 0.25 0 0 1 23 16.25L23 16.75A0.25 0.25 0 0 1 22.75 17L21.25 17A0.25 0.25 0 0 1 21 16.75L21 16.25A0.25 0.25 0 0 0 20.75 16L17.25 16A0.25 0.25 0 0 1 17 15.75L17 15.25A0.25 0.25 0 0 1 17.25 15L17.75 15A0.25 0.25 0 0 0 18 14.75L18 14.25A0.25 0.25 0 0 0 17.75 14L14.25 14A0.25 0.25 0 0 0 14 14.25L14 14.75A0.25 0.25 0 0 1 13.75 15L13.25 15A0.25 0.25 0 0 1 13 14.75L13 14.25A0.25 0.25 0 0 0 12.75 14L12.25 14A0.25 0.25 0 0 1 12 13.75L12 12.25A0.25 0.25 0 0 1 12.25 12L12.75 12A0.25 0.25 0 0 1 13 12.25L13 12.75A0.25 0.25 0 0 0 13.25 13L13.75 13A0.25 0.25 0 0 0 14 12.75L14 10.25A0.25 0.25 0 0 0 13.75 10L13.25 10A0.25 0.25 0 0 0 13 10.25L13 10.75A0.25 0.25 0 0 1 12.75 11L11.25 11A0.25 0.25 0 0 0 11 11.25L11 12.75A0.25 0.25 0 0 1 10.75 13L10.25 13A0.25 0.25 0 0 1 10 12.75L10 12.25A0.25 0.25 0 0 0 9.75 12L9.25 12A0.25 0.25 0 0 1 9 11.75L9 10.25A0.25 0.25 0 0 1 9.25 10L9.75 10A0.25 0.25 0 0 0 10 9.75L10 9.25A0.25 0.25 0 0 0 9.75 9L9.25 9A0.25 0.25 0 0 1 9 8.75L9 8.25A0.25 0.25 0 0 1 9.25 8L9.75 8A0.25 0.25 0 0 0 10 7.75L10 7.25A0.25 0.25 0 0 1 10.25 7L10.75 7A0.25 0.25 0 0 1 11 7.25L11 7.75A0.25 0.25 0 0 0 11.25 8L11.75 8A0.25 0.25 0 0 0 12 7.75L12 7.25A0.25 0.25 0 0 1 12.25 7L12.75 7A0.25 0.25 0 0 0 13 6.75L13 5.25A0.25 0.25 0 0 0 12.75 5L12.25 5A0.25 0.25 0 0 1 12 4.75L12 3.25A0.25 0.25 0 0 1 12.25 3L13.75 3A0.25 0.25 0 0 1 14 3.25L14 4.75A0.25 0.25 0 0 0 14.25 5L14.75 5A0.25 0.25 0 0 0 15 4.75L15 4.25A0.25 0.25 0 0 1 15.25 4L15.75 4A0.25 0.25 0 0 0 16 3.75L16 2.25A0.25 0.25 0 0 0 15.75 2L14.25 2A0.25 0.25 0 0 1 14 1.75L14 1.25A0.25 0.25 0 0 1 14.25 1L16.75 1A0.25 0.25 0 0 0 17 0.75L17 0.25A0.25 0.25 0 0 0 16.75 0L14.25 0A0.25 0.25 0 0 0 14 0.25ZM10 5.25L10 5.75A0.25 0.25 0 0 1 9.75 6L9.25 6A0.25 0.25 0 0 0 9 6.25L9 6.75A0.25 0.25 0 0 0 9.25 7L9.75 7A0.25 0.25 0 0 0 10 6.75L10 6.25A0.25 0.25 0 0 1 10.25 6L10.75 6A0.25 0.25 0 0 1 11 6.25L11 6.75A0.25 0.25 0 0 0 11.25 7L11.75 7A0.25 0.25 0 0 0 12 6.75L12 5.25A0.25 0.25 0 0 0 11.75 5L10.25 5A0.25 0.25 0 0 0 10 5.25ZM16 5.25L16 6.75A0.25 0.25 0 0 1 15.75 7L15.25 7A0.25 0.25 0 0 1 15 6.75L15 6.25A0.25 0.25 0 0 0 14.75 6L14.25 6A0.25 0.25 0 0 0 14 6.25L14 7.75A0.25 0.25 0 0 1 13.75 8L13.25 8A0.25 0.25 0 0 0 13 8.25L13 8.75A0.25 0.25 0 0 0 13.25 9L13.75 9A0.25 0.25 0 0 0 14 8.75L14 8.25A0.25 0.25 0 0 1 14.25 8L15.75 8A0.25 0.25 0 0 0 16 7.75L16 7.25A0.25 0.25 0 0 1 16.25 7L16.75 7A0.25 0.25 0 0 0 17 6.75L17 5.25A0.25 0.25 0 0 0 16.75 5L16.25 5A0.25 0.25 0 0 0 16 5.25ZM17 8.25L17 8.75A0.25 0.25 0 0 0 17.25 9L17.75 9A0.25 0.25 0 0 0 18 8.75L18 8.25A0.25 0.25 0 0 0 17.75 8L17.25 8A0.25 0.25 0 0 0 17 8.25ZM6 9.25L6 9.75A0.25 0.25 0 0 1 5.75 10L4.25 10A0.25 0.25 0 0 0 4 10.25L4 10.75A0.25 0.25 0 0 0 4.25 11L4.75 11A0.25 0.25 0 0 1 5 11.25L5 11.75A0.25 0.25 0 0 0 5.25 12L6.75 12A0.25 0.25 0 0 1 7 12.25L7 12.75A0.25 0.25 0 0 1 6.75 13L6.25 13A0.25 0.25 0 0 0 6 13.25L6 13.75A0.25 0.25 0 0 0 6.25 14L6.75 14A0.25 0.25 0 0 1 7 14.25L7 14.75A0.25 0.25 0 0 0 7.25 15L7.75 15A0.25 0.25 0 0 0 8 14.75L8 14.25A0.25 0.25 0 0 1 8.25 14L9.75 14A0.25 0.25 0 0 0 10 13.75L10 13.25A0.25 0.25 0 0 0 9.75 13L8.25 13A0.25 0.25 0 0 1 8 12.75L8 11.25A0.25 0.25 0 0 0 7.75 11L6.25 11A0.25 0.25 0 0 1 6 10.75L6 10.25A0.25 0.25 0 0 1 6.25 10L6.75 10A0.25 0.25 0 0 0 7 9.75L7 9.25A0.25 0.25 0 0 0 6.75 9L6.25 9A0.25 0.25 0 0 0 6 9.25ZM2 10.25L2 10.75A0.25 0.25 0 0 1 1.75 11L1.25 11A0.25 0.25 0 0 0 1 11.25L1 12.75A0.25 0.25 0 0 0 1.25 13L1.75 13A0.25 0.25 0 0 0 2 12.75L2 12.25A0.25 0.25 0 0 1 2.25 12L2.75 12A0.25 0.25 0 0 0 3 11.75L3 10.25A0.25 0.25 0 0 0 2.75 10L2.25 10A0.25 0.25 0 0 0 2 10.25ZM16 10.25L16 10.75A0.25 0.25 0 0 1 15.75 11L15.25 11A0.25 0.25 0 0 0 15 11.25L15 12.75A0.25 0.25 0 0 0 15.25 13L16.75 13A0.25 0.25 0 0 0 17 12.75L17 12.25A0.25 0.25 0 0 0 16.75 12L16.25 12A0.25 0.25 0 0 1 16 11.75L16 11.25A0.25 0.25 0 0 1 16.25 11L16.75 11A0.25 0.25 0 0 0 17 10.75L17 10.25A0.25 0.25 0 0 0 16.75 10L16.25 10A0.25 0.25 0 0 0 16 10.25ZM18 11.25L18 12.75A0.25 0.25 0 0 0 18.25 13L18.75 13A0.25 0.25 0 0 0 19 12.75L19 11.25A0.25 0.25 0 0 0 18.75 11L18.25 11A0.25 0.25 0 0 0 18 11.25ZM7 13.25L7 13.75A0.25 0.25 0 0 0 7.25 14L7.75 14A0.25 0.25 0 0 0 8 13.75L8 13.25A0.25 0.25 0 0 0 7.75 13L7.25 13A0.25 0.25 0 0 0 7 13.25ZM11 14.25L11 14.75A0.25 0.25 0 0 1 10.75 15L10.25 15A0.25 0.25 0 0 0 10 15.25L10 16.75A0.25 0.25 0 0 0 10.25 17L10.75 17A0.25 0.25 0 0 1 11 17.25L11 17.75A0.25 0.25 0 0 0 11.25 18L11.75 18A0.25 0.25 0 0 0 12 17.75L12 17.25A0.25 0.25 0 0 1 12.25 17L12.75 17A0.25 0.25 0 0 0 13 16.75L13 16.25A0.25 0.25 0 0 0 12.75 16L12.25 16A0.25 0.25 0 0 1 12 15.75L12 14.25A0.25 0.25 0 0 0 11.75 14L11.25 14A0.25 0.25 0 0 0 11 14.25ZM14 15.25L14 16.75A0.25 0.25 0 0 0 14.25 17L14.75 17A0.25 0.25 0 0 1 15 17.25L15 17.75A0.25 0.25 0 0 1 14.75 18L13.25 18A0.25 0.25 0 0 0 13 18.25L13 19.75A0.25 0.25 0 0 0 13.25 20L13.75 20A0.25 0.25 0 0 0 14 19.75L14 19.25A0.25 0.25 0 0 1 14.25 19L14.75 19A0.25 0.25 0 0 0 15 18.75L15 18.25A0.25 0.25 0 0 1 15.25 18L15.75 18A0.25 0.25 0 0 0 16 17.75L16 15.25A0.25 0.25 0 0 0 15.75 15L14.25 15A0.25 0.25 0 0 0 14 15.25ZM2 16.25L2 16.75A0.25 0.25 0 0 0 2.25 17L4.75 17A0.25 0.25 0 0 0 5 16.75L5 16.25A0.25 0.25 0 0 0 4.75 16L2.25 16A0.25 0.25 0 0 0 2 16.25ZM11 16.25L11 16.75A0.25 0.25 0 0 0 11.25 17L11.75 17A0.25 0.25 0 0 0 12 16.75L12 16.25A0.25 0.25 0 0 0 11.75 16L11.25 16A0.25 0.25 0 0 0 11 16.25ZM17 17.25L17 19.75A0.25 0.25 0 0 0 17.25 20L19.75 20A0.25 0.25 0 0 0 20 19.75L20 17.25A0.25 0.25 0 0 0 19.75 17L17.25 17A0.25 0.25 0 0 0 17 17.25ZM18 18.25L18 18.75A0.25 0.25 0 0 0 18.25 19L18.75 19A0.25 0.25 0 0 0 19 18.75L19 18.25A0.25 0.25 0 0 0 18.75 18L18.25 18A0.25 0.25 0 0 0 18 18.25ZM11 19.25L11 19.75A0.25 0.25 0 0 0 11.25 20L11.75 20A0.25 0.25 0 0 0 12 19.75L12 19.25A0.25 0.25 0 0 0 11.75 19L11.25 19A0.25 0.25 0 0 0 11 19.25ZM23 20.25L23 20.75A0.25 0.25 0 0 0 23.25 21L23.75 21A0.25 0.25 0 0 0 24 20.75L24 20.25A0.25 0.25 0 0 0 23.75 20L23.25 20A0.25 0.25 0 0 0 23 20.25ZM11 21.25L11 21.75A0.25 0.25 0 0 0 11.25 22L11.75 22A0.25 0.25 0 0 0 12 21.75L12 21.25A0.25 0.25 0 0 0 11.75 21L11.25 21A0.25 0.25 0 0 0 11 21.25ZM17 21.25L17 21.75A0.25 0.25 0 0 1 16.75 22L16.25 22A0.25 0.25 0 0 0 16 22.25L16 22.75A0.25 0.25 0 0 0 16.25 23L17.75 23A0.25 0.25 0 0 0 18 22.75L18 21.25A0.25 0.25 0 0 0 17.75 21L17.25 21A0.25 0.25 0 0 0 17 21.25ZM9 22.25L9 23.75A0.25 0.25 0 0 0 9.25 24L9.75 24A0.25 0.25 0 0 0 10 23.75L10 22.25A0.25 0.25 0 0 0 9.75 22L9.25 22A0.25 0.25 0 0 0 9 22.25ZM12 24.25L12 24.75A0.25 0.25 0 0 0 12.25 25L12.75 25A0.25 0.25 0 0 0 13 24.75L13 24.25A0.25 0.25 0 0 0 12.75 24L12.25 24A0.25 0.25 0 0 0 12 24.25ZM0 0L7 0L7 7L0 7ZM1 1L1 6L6 6L6 1ZM5 3.5A1.5 1.5 0 0 1 3.5 5A1.5 1.5 0 0 1 2 3.5A1.5 1.5 0 0 1 3.5 2A1.5 1.5 0 0 1 5 3.5ZM18 0L25 0L25 7L18 7ZM19 1L19 6L24 6L24 1ZM23 3.5A1.5 1.5 0 0 1 21.5 5A1.5 1.5 0 0 1 20 3.5A1.5 1.5 0 0 1 21.5 2A1.5 1.5 0 0 1 23 3.5ZM0 18L7 18L7 25L0 25ZM1 19L1 24L6 24L6 19ZM5 21.5A1.5 1.5 0 0 1 3.5 23A1.5 1.5 0 0 1 2 21.5A1.5 1.5 0 0 1 3.5 20A1.5 1.5 0 0 1 5 21.5Z" fill="#000000"/></g></g></svg>
