<?xml version="1.0" encoding="UTF-8"?>
<svg xmlns="http://www.w3.org/2000/svg" version="1.1" width="400" height="400" viewBox="0 0 400 400"><rect x="0" y="0" width="400" height="400" fill="#ffffff"/><g transform="scale(12.903)"><g transform="translate(1,1)"><path fill-rule="evenodd" d="M8 0L8 3L9 3L9 5L8 5L8 9L7 9L7 8L6 8L6 9L7 9L7 10L5 10L5 8L2 8L2 9L1 9L1 10L0 10L0 11L1 11L1 12L0 12L0 13L1 13L1 14L0 14L0 21L1 21L1 17L2 17L2 19L3 19L3 16L5 16L5 17L4 17L4 19L5 19L5 20L6 20L6 21L7 21L7 20L10 20L10 21L8 21L8 22L9 22L9 23L10 23L10 24L11 24L11 28L10 28L10 27L9 27L9 24L8 24L8 27L9 27L9 29L11 29L11 28L13 28L13 29L14 29L14 28L16 28L16 29L17 29L17 28L18 28L18 26L17 26L17 24L18 24L18 25L19 25L19 24L20 24L20 26L19 26L19 29L26 29L26 27L28 27L28 28L29 28L29 27L28 27L28 25L27 25L27 26L26 26L26 24L25 24L25 22L26 22L26 23L28 23L28 24L29 24L29 23L28 23L28 22L29 22L29 21L27 21L27 22L26 22L26 21L25 21L25 19L22 19L22 18L21 18L21 19L18 19L18 18L20 18L20 17L22 17L22 16L24 16L24 17L23 17L23 18L24 18L24 17L27 17L27 18L26 18L26 19L27 19L27 20L28 20L28 19L27 19L27 18L28 18L28 17L27 17L27 16L29 16L29 15L27 15L27 16L25 16L25 15L26 15L26 12L27 12L27 13L28 13L28 12L27 12L27 10L28 10L28 9L29 9L29 8L26 8L26 9L25 9L25 10L26 10L26 11L21 11L21 12L20 12L20 13L19 13L19 14L18 14L18 16L15 16L15 15L17 15L17 13L16 13L16 12L15 12L15 11L17 11L17 12L18 12L18 10L16 10L16 9L15 9L15 11L13 11L13 13L14 13L14 14L15 14L15 15L14 15L14 16L13 16L13 17L12 17L12 18L10 18L10 17L9 17L9 16L8 16L8 15L7 15L7 14L8 14L8 13L7 13L7 12L6 12L6 11L7 11L7 10L8 10L8 9L9 9L9 10L11 10L11 8L12 8L12 10L13 10L13 8L15 8L15 6L14 6L14 5L13 5L13 4L14 4L14 1L16 1L16 2L15 2L15 3L16 3L16 2L17 2L17 4L16 4L16 7L17 7L17 4L18 4L18 3L19 3L19 4L20 4L20 5L18 5L18 7L19 7L19 8L18 8L18 9L19 9L19 8L21 8L21 10L22 10L22 9L23 9L23 10L24 10L24 8L21 8L21 6L20 6L20 5L21 5L21 4L20 4L20 3L21 3L21 2L20 2L20 1L21 1L21 0L20 0L20 1L19 1L19 0L18 0L18 1L17 1L17 0L14 0L14 1L13 1L13 0L12 0L12 1L13 1L13 2L10 2L10 1L11 1L11 0ZM18 1L18 2L19 2L19 1ZM10 3L10 4L11 4L11 7L12 7L12 8L13 8L13 7L14 7L14 6L13 6L13 7L12 7L12 3ZM9 5L9 8L10 8L10 5ZM19 6L19 7L20 7L20 6ZM26 9L26 10L27 10L27 9ZM1 10L1 11L3 11L3 12L2 12L2 14L1 14L1 16L3 16L3 14L4 14L4 15L5 15L5 16L7 16L7 17L6 17L6 18L7 18L7 17L8 17L8 16L7 16L7 15L6 15L6 14L7 14L7 13L6 13L6 12L5 12L5 10ZM8 11L8 12L9 12L9 11ZM3 12L3 13L5 13L5 12ZM10 12L10 14L9 14L9 15L10 15L10 16L12 16L12 15L13 15L13 14L12 14L12 15L10 15L10 14L11 14L11 12ZM14 12L14 13L15 13L15 14L16 14L16 13L15 13L15 12ZM21 12L21 14L20 14L20 15L23 15L23 14L24 14L24 15L25 15L25 14L24 14L24 12ZM19 16L19 17L20 17L20 16ZM13 17L13 18L12 18L12 19L13 19L13 20L14 20L14 21L15 21L15 23L14 23L14 22L13 22L13 24L15 24L15 25L14 25L14 26L13 26L13 25L12 25L12 27L13 27L13 28L14 28L14 26L15 26L15 27L16 27L16 28L17 28L17 27L16 27L16 21L17 21L17 19L16 19L16 17ZM13 18L13 19L15 19L15 18ZM6 19L6 20L7 20L7 19ZM3 20L3 21L4 21L4 20ZM15 20L15 21L16 21L16 20ZM18 20L18 21L19 21L19 22L17 22L17 23L18 23L18 24L19 24L19 23L20 23L20 20ZM21 21L21 24L24 24L24 21ZM10 22L10 23L11 23L11 24L12 24L12 22ZM22 22L22 23L23 23L23 22ZM22 25L22 27L21 27L21 26L20 26L20 28L25 28L25 27L23 27L23 25ZM0 0L7 0L7 7L0 7ZM1 1L1 6L6 6L6 1ZM5 3.5A1.5 1.5 0 0 1 3.5 5A1.5 1.5 0 0 1 2 3.5A1.5 1.5 0 0 1 3.5 2A1.5 1.5 0 0 1 5 3.5ZM22 0L29 0L29 7L22 7ZM23 1L23 6L28 6L28 1ZM27 3.5A1.5 1.5 0 0 1 25.5 5A1.5 1.5 0 0 1 24 3.5A1.5 1.5 0 0 1 25.5 2A1.5 1.5 0 0 1 27 3.5ZM0 22L7 22L7 29L0 29ZM1 23L1 28L6 28L6 23ZM5 25.5A1.5 1.5 0 0 1 3.5 27A1.5 1.5 0 0 1 2 25.5A1.5 1.5 0 0 1 3.5 24A1.5 1.5 0 0 1 5 25.5Z" fill="#be0609"/></g></g></svg>
